<?xml version="1.0" encoding="UTF-8" standalone="no"?>
<!-- Created with Inkscape (http://www.inkscape.org/) -->

<svg
    width="7.8389769mm"
    height="3.8717885mm"
    viewBox="0 0 7.8389769 3.8717885"
    version="1.1"
    id="svg5"
    inkscape:version="1.1.2 (0a00cf5339, 2022-02-04)"
    sodipodi:docname="mod.svg"
    xmlns:inkscape="http://www.inkscape.org/namespaces/inkscape"
    xmlns:sodipodi="http://sodipodi.sourceforge.net/DTD/sodipodi-0.dtd"
    xmlns="http://www.w3.org/2000/svg"
>
  <sodipodi:namedview
     id="namedview7"
     pagecolor="#505050"
     bordercolor="#ffffff"
     borderopacity="1"
     inkscape:pageshadow="0"
     inkscape:pageopacity="0"
     inkscape:pagecheckerboard="1"
     inkscape:document-units="mm"
     showgrid="false"
     inkscape:zoom="24.886869"
     inkscape:cx="9.7240036"
     inkscape:cy="5.3441838"
     inkscape:window-width="3740"
     inkscape:window-height="2060"
     inkscape:window-x="50"
     inkscape:window-y="50"
     inkscape:window-maximized="1"
     inkscape:current-layer="layer1" />
  <defs
     id="defs2" />
  <g
     inkscape:label="Layer 1"
     inkscape:groupmode="layer"
     id="layer1"
     transform="translate(-60.151753,-128.35132)">
    <path
       style="fill:none;stroke:#000000;stroke-width:0.065;stroke-linecap:round;stroke-linejoin:miter;stroke-miterlimit:4;stroke-dasharray:none;stroke-opacity:1;paint-order:normal"
       d="m 60.184253,129.97112 c 0.700205,0.90207 2.566075,-2.87691 3.852174,0.83639 0.37749,1.08991 2.697407,-5.18671 3.921803,-0.20834"
       id="path918"
       sodipodi:nodetypes="csc" />
    <path
       style="fill:none;stroke:#000000;stroke-width:0.065;stroke-linecap:round;stroke-linejoin:miter;stroke-miterlimit:4;stroke-dasharray:none;stroke-opacity:1;paint-order:normal"
       d="m 67.95823,130.59917 c -2.097001,1.58612 -0.656395,-5.89554 -4.110792,0.24329 -0.71505,1.27072 -0.440673,-4.64808 -3.663185,-0.87134"
       id="path918-3"
       sodipodi:nodetypes="csc" />
    <path
       sodipodi:type="spiral"
       style="fill:none;fill-rule:evenodd;stroke:#000000;stroke-width:0.377953;stroke-miterlimit:4;stroke-dasharray:none;stroke-opacity:0.31807"
       id="path8166"
       sodipodi:cx="0.39497197"
       sodipodi:cy="6.4835529"
       sodipodi:expansion="1"
       sodipodi:revolution="2.7350216"
       sodipodi:radius="7.7491746"
       sodipodi:argument="-19.399044"
       sodipodi:t0="0"
       d="M 0.39497197,6.4835529 C 0.75840935,6.2609835 0.87429834,6.8636513 0.76489705,7.0876098 0.46842632,7.6945232 -0.37756047,7.6001816 -0.81314168,7.2234031 -1.5922943,6.5494347 -1.4093294,5.329638 -0.71480329,4.6713825 0.30444167,3.705366 1.9414267,3.9864298 2.8111993,5.0038526 3.9704693,6.3599172 3.5872711,8.4266345 2.2445974,9.5038371 0.5549795,10.859387 -1.9467153,10.372278 -3.229369,8.7031034 -4.7828344,6.6815088 -4.19091,3.7421391 -2.1945036,2.2551552 0.15819217,0.502796 3.5368119,1.2000553 5.2274266,3.5241523 c 1.9518815,2.6832619 1.148965,6.5021337 -1.5031289,8.3959117 -3.01347763,2.151832 -7.2732798,1.243045 -9.369894,-1.73726 -2.1896538,-3.1125595 -1.4816878,-7.4704749 1.390449,-9.89812983"
       transform="matrix(0,0.26458333,-0.26458333,0,65.610437,130.50372)" />
  </g>
</svg>
